<svg width="83" height="83" viewBox="0 0 83 83" fill="none" xmlns="http://www.w3.org/2000/svg">
<g clip-path="url(#clip0)">
<path d="M82.334 41.167C82.334 18.467 63.867 0 41.167 0C40.697 0 40.233 0.02 39.766 0.036V0.026C39.631 0.026 39.5 0.043 39.365 0.046C39.155 0.056 38.944 0.067 38.734 0.079C38.231 0.103 37.73 0.134 37.237 0.193C16.375 2.178 0 19.794 0 41.167C0 63.867 18.467 82.334 41.167 82.334C63.867 82.334 82.334 63.867 82.334 41.167ZM46.359 22.072C46.359 24.94 44.034 27.265 41.167 27.265C38.299 27.265 35.974 24.94 35.974 22.072C35.974 19.204 38.299 16.879 41.167 16.879C44.034 16.879 46.359 19.205 46.359 22.072ZM58.712 60.85C58.712 70.903 50.215 79.081 39.771 79.081V79.115C19.472 78.378 3.183 61.645 3.183 41.167C3.183 24.497 13.983 10.31 28.951 5.21C23.372 8.826 19.66 15.121 19.66 22.282C19.66 33.459 28.677 42.553 39.772 42.587V42.619C50.216 42.619 58.712 50.797 58.712 60.85ZM41.167 66.688C38.299 66.688 35.974 64.362 35.974 61.495C35.974 58.627 38.299 56.302 41.167 56.302C44.034 56.302 46.359 58.627 46.359 61.495C46.359 64.361 44.034 66.688 41.167 66.688Z" fill="#143774"/>
</g>
<defs>
<clipPath id="clip0">
<rect width="82.334" height="82.334" fill="white"/>
</clipPath>
</defs>
</svg>
